<svg xmlns="http://www.w3.org/2000/svg" width="100" height="26" fill="none"><path fill="#fff" d="M14.8 11.86a4.95 4.95 0 0 1 2.35-4.15 5.07 5.07 0 0 0-3.99-2.16c-1.68-.17-3.3 1-4.16 1-.87 0-2.19-.98-3.6-.95A5.32 5.32 0 0 0 .91 8.33c-1.94 3.35-.5 8.27 1.36 10.97.93 1.33 2.01 2.81 3.43 2.76 1.38-.06 1.9-.89 3.58-.89 1.66 0 2.14.89 3.59.85 1.49-.02 2.42-1.33 3.32-2.66.66-.95 1.18-2 1.52-3.1a4.78 4.78 0 0 1-2.92-4.4ZM12.06 3.77A4.87 4.87 0 0 0 13.18.28a4.96 4.96 0 0 0-4.11 3.23c-.2.58-.28 1.19-.24 1.8a4.1 4.1 0 0 0 3.23-1.54ZM32.33 18.7H27.6l-1.14 3.36h-2l4.48-12.42h2.08l4.48 12.42h-2.03l-1.14-3.36Zm-4.24-1.55h3.75l-1.85-5.44h-.05l-1.85 5.44ZM45.19 17.53c0 2.82-1.5 4.62-3.78 4.62a3.07 3.07 0 0 1-2.85-1.58h-.04v4.48h-1.86V13.01h1.8v1.5h.03a3.21 3.21 0 0 1 2.88-1.6c2.3 0 3.82 1.82 3.82 4.62Zm-1.91 0c0-1.83-.95-3.04-2.4-3.04-1.42 0-2.37 1.24-2.37 3.04 0 1.83.95 3.05 2.37 3.05 1.45 0 2.4-1.2 2.4-3.05ZM55.15 17.53c0 2.82-1.5 4.62-3.78 4.62a3.07 3.07 0 0 1-2.85-1.58h-.04v4.48h-1.86V13.01h1.8v1.5h.04a3.21 3.21 0 0 1 2.88-1.6c2.3 0 3.81 1.82 3.81 4.62Zm-1.9 0c0-1.83-.96-3.04-2.4-3.04-1.42 0-2.38 1.24-2.38 3.04 0 1.83.96 3.05 2.38 3.05 1.44 0 2.4-1.2 2.4-3.05ZM61.74 18.6c.14 1.23 1.33 2.04 2.97 2.04 1.56 0 2.69-.8 2.69-1.92 0-.96-.68-1.54-2.29-1.94l-1.6-.38c-2.29-.55-3.35-1.62-3.35-3.35 0-2.14 1.87-3.62 4.52-3.62 2.63 0 4.42 1.48 4.49 3.62h-1.88c-.11-1.24-1.14-1.99-2.63-1.99-1.5 0-2.53.76-2.53 1.86 0 .88.66 1.4 2.26 1.79l1.37.34c2.54.6 3.6 1.62 3.6 3.44 0 2.32-1.85 3.78-4.8 3.78-2.74 0-4.6-1.42-4.72-3.67h1.9ZM73.38 10.86v2.15h1.72v1.47h-1.72v4.99c0 .77.34 1.14 1.1 1.14.2 0 .4-.02.6-.05v1.46c-.33.07-.68.1-1.02.1-1.84 0-2.55-.7-2.55-2.45v-5.2h-1.32v-1.46h1.32v-2.15h1.86ZM76.1 17.53c0-2.85 1.67-4.64 4.29-4.64s4.3 1.8 4.3 4.64c0 2.86-1.67 4.64-4.3 4.64-2.64 0-4.3-1.78-4.3-4.64Zm6.69 0c0-1.95-.9-3.1-2.4-3.1s-2.4 1.16-2.4 3.1c0 1.96.9 3.1 2.4 3.1s2.4-1.14 2.4-3.1ZM86.21 13H88v1.55h.04a2.16 2.16 0 0 1 2.18-1.64c.21 0 .42.02.63.07v1.74a2.6 2.6 0 0 0-.83-.11 1.87 1.87 0 0 0-1.94 2.08v5.37h-1.86V13ZM99.41 19.4c-.25 1.64-1.85 2.77-3.9 2.77-2.63 0-4.26-1.76-4.26-4.6 0-2.83 1.64-4.68 4.19-4.68 2.5 0 4.08 1.72 4.08 4.47V18h-6.4v.1a2.36 2.36 0 0 0 2.44 2.57 2.05 2.05 0 0 0 2.09-1.27h1.76Zm-6.28-2.7h4.53a2.18 2.18 0 0 0-2.22-2.3 2.3 2.3 0 0 0-2.3 2.3ZM27.85.3a2.64 2.64 0 0 1 2.81 2.96c0 1.9-1.03 3-2.8 3H25.7V.3h2.15Zm-1.22 5.12h1.12a1.88 1.88 0 0 0 1.97-2.15 1.88 1.88 0 0 0-1.97-2.13h-1.12v4.28ZM31.7 4a2.13 2.13 0 1 1 4.26 0 2.13 2.13 0 1 1-4.25 0Zm3.34 0c0-.97-.44-1.54-1.2-1.54-.78 0-1.21.57-1.21 1.55 0 .98.43 1.55 1.2 1.55s1.21-.57 1.21-1.55ZM41.6 6.26h-.92l-.93-3.32h-.07l-.93 3.32h-.91l-1.24-4.5h.9l.8 3.43h.07l.93-3.43h.85l.93 3.43h.07l.8-3.43h.89l-1.24 4.5ZM43.88 1.76h.86v.71h.06a1.35 1.35 0 0 1 1.35-.8 1.46 1.46 0 0 1 1.56 1.68v2.91h-.9v-2.7c0-.71-.3-1.07-.97-1.07a1.03 1.03 0 0 0-1.07 1.14v2.63h-.89v-4.5ZM49.12 0h.89v6.26h-.89V0ZM51.25 4a2.13 2.13 0 1 1 4.24 0 2.13 2.13 0 1 1-4.24 0Zm3.33 0c0-.97-.44-1.54-1.2-1.54-.78 0-1.22.57-1.22 1.55 0 .98.44 1.55 1.21 1.55s1.2-.57 1.2-1.55ZM56.43 4.99c0-.81.6-1.28 1.67-1.35l1.22-.07v-.39c0-.47-.31-.74-.92-.74-.5 0-.84.18-.94.5h-.86c.1-.77.82-1.27 1.84-1.27 1.13 0 1.77.56 1.77 1.51v3.08h-.86v-.63h-.07a1.51 1.51 0 0 1-1.35.7A1.36 1.36 0 0 1 56.43 5Zm2.9-.39v-.37l-1.1.07c-.63.04-.9.25-.9.65s.34.64.83.64a1.06 1.06 0 0 0 1.16-.99ZM61.38 4c0-1.42.73-2.32 1.87-2.32a1.48 1.48 0 0 1 1.38.8h.06V0h.9v6.26h-.86v-.71h-.07a1.56 1.56 0 0 1-1.41.78c-1.15 0-1.87-.9-1.87-2.32Zm.91 0c0 .96.46 1.54 1.2 1.54.76 0 1.22-.59 1.22-1.53 0-.94-.47-1.53-1.21-1.53-.75 0-1.2.58-1.2 1.53ZM69.26 4a2.13 2.13 0 1 1 4.25 0 2.13 2.13 0 1 1-4.25 0Zm3.33 0c0-.97-.44-1.54-1.2-1.54-.78 0-1.21.57-1.21 1.55 0 .98.43 1.55 1.2 1.55S72.6 4.99 72.6 4ZM74.7 1.76h.85v.71h.07a1.35 1.35 0 0 1 1.34-.8 1.46 1.46 0 0 1 1.56 1.68v2.91h-.89v-2.7c0-.71-.31-1.07-.97-1.07a1.03 1.03 0 0 0-1.07 1.14v2.63h-.9v-4.5ZM83.54.64v1.14h.98v.75h-.98v2.31c0 .47.2.68.64.68.11 0 .23 0 .34-.02v.74c-.16.03-.32.04-.48.05-1 0-1.39-.35-1.39-1.22V2.53h-.71v-.75h.71V.64h.9ZM85.73 0h.88v2.48h.07a1.39 1.39 0 0 1 1.38-.8 1.48 1.48 0 0 1 1.55 1.67v2.91h-.9V3.57c0-.72-.33-1.08-.96-1.08a1.05 1.05 0 0 0-1.13 1.14v2.63h-.89V0ZM94.79 5.04a1.83 1.83 0 0 1-1.95 1.3 2.05 2.05 0 0 1-2.08-2.32 2.08 2.08 0 0 1 2.07-2.35c1.26 0 2.01.86 2.01 2.27v.31h-3.18v.05a1.19 1.19 0 0 0 1.2 1.3 1.08 1.08 0 0 0 1.07-.56h.86ZM91.66 3.6h2.28a1.09 1.09 0 0 0-1.11-1.16 1.15 1.15 0 0 0-1.17 1.16Z"/></svg>