<svg xmlns="http://www.w3.org/2000/svg" width="116" height="28" fill="#FF553E"><path d="M61.12 6.47c-.9 0-1.66-.32-2.26-.94a3.2 3.2 0 0 1-.92-2.3c0-.9.31-1.68.92-2.29.6-.62 1.36-.94 2.26-.94.89 0 1.65.32 2.26.94.6.63.91 1.4.91 2.3a3.21 3.21 0 0 1-.91 2.28 3 3 0 0 1-2.26.95Zm-26.83 0c-.88 0-1.64-.32-2.27-.93a3.12 3.12 0 0 1-.93-2.3c0-.92.31-1.7.93-2.31A3.1 3.1 0 0 1 34.3 0c.44 0 .87.09 1.27.27.4.17.73.4.97.69l.06.07-.67.67-.07-.09a1.9 1.9 0 0 0-1.57-.67c-.6 0-1.12.21-1.55.64-.44.42-.66.98-.66 1.66 0 .67.22 1.23.66 1.66.43.42.95.64 1.55.64.65 0 1.18-.22 1.6-.64.25-.25.4-.6.46-1.04h-2.16v-.93h3.09l.01.08c.02.16.04.32.04.47 0 .86-.25 1.55-.77 2.07a3 3 0 0 1-2.26.92Zm35.67-.14h-.95L66.1 1.65l.02.85v3.83h-.95V.13h1.09l.02.05 2.74 4.41-.02-.84V.13h.96v6.2Zm-15.99 0h-.96V1.07h-1.67V.13h4.3v.94h-1.67v5.26Zm-3.42 0h-.96V.13h.96v6.2Zm-5.4 0h-.96V1.07h-1.67V.13h4.3v.94h-1.67v5.26Zm-3.24 0h-3.69V.12h3.69v.94h-2.72v1.7h2.45v.92H39.2v1.7h2.72v.93Zm17.65-1.44c.43.43.95.64 1.56.64.62 0 1.13-.2 1.56-.64.42-.43.63-.98.63-1.66 0-.67-.21-1.23-.63-1.65a2.13 2.13 0 0 0-1.56-.64c-.62 0-1.13.2-1.55.64-.43.43-.64.98-.64 1.65 0 .68.21 1.23.63 1.66Z"/><path fill-rule="evenodd" d="M57.85 14.99a4.18 4.18 0 0 0-4.25 4.25 4.2 4.2 0 0 0 4.25 4.26c2.35 0 4.25-1.8 4.25-4.26S60.2 15 57.85 15Zm0 6.82c-1.28 0-2.39-1.06-2.39-2.58 0-1.53 1.11-2.57 2.4-2.57 1.28 0 2.38 1.04 2.38 2.57 0 1.53-1.1 2.58-2.39 2.58ZM48.58 15a4.18 4.18 0 0 0-4.25 4.25 4.2 4.2 0 0 0 4.25 4.26c2.35 0 4.25-1.8 4.25-4.26S50.93 15 48.58 15Zm0 6.82c-1.28 0-2.39-1.06-2.39-2.58 0-1.53 1.11-2.57 2.4-2.57 1.28 0 2.38 1.04 2.38 2.57 0 1.53-1.1 2.58-2.39 2.58ZM37.55 16.3v1.8h4.3a3.8 3.8 0 0 1-.97 2.27 4.38 4.38 0 0 1-3.32 1.32 4.73 4.73 0 0 1-4.71-4.8 4.73 4.73 0 0 1 7.95-3.51l1.27-1.28a6.24 6.24 0 0 0-4.5-1.82 6.68 6.68 0 0 0-6.67 6.6c0 3.64 3.04 6.6 6.67 6.6a6 6 0 0 0 4.6-1.86 5.99 5.99 0 0 0 1.55-4.22c0-.42-.03-.8-.1-1.12h-6.07v.02Zm45.12 1.4c-.35-.95-1.42-2.71-3.63-2.71-2.18 0-3.99 1.72-3.99 4.25 0 2.4 1.8 4.26 4.2 4.26a4.2 4.2 0 0 0 3.54-1.89l-1.44-.97a2.4 2.4 0 0 1-2.08 1.18c-.96 0-1.62-.43-2.06-1.29l5.66-2.36-.2-.47Zm-5.77 1.42a2.33 2.33 0 0 1 2.2-2.48c.75 0 1.37.37 1.58.9l-3.78 1.58Zm-4.6 4.12h1.85v-12.5H72.3v12.5Zm-3.06-7.3h-.07a2.93 2.93 0 0 0-2.23-.95 4.22 4.22 0 0 0-4.06 4.27 4.2 4.2 0 0 0 4.06 4.23c1 0 1.81-.46 2.23-.97h.07v.61c0 1.63-.86 2.5-2.26 2.5-1.14 0-1.85-.82-2.13-1.5l-1.62.67a4.04 4.04 0 0 0 3.75 2.51c2.18 0 4.03-1.29 4.03-4.43v-7.64h-1.76v.7h-.01Zm-2.14 5.88c-1.28 0-2.35-1.07-2.35-2.56 0-1.5 1.07-2.6 2.35-2.6s2.26 1.1 2.26 2.6c.01 1.49-.98 2.56-2.26 2.56Zm24.28-11.07h-4.44v12.5h1.86V18.5h2.59c2.05 0 4.08-1.5 4.08-3.88s-2.02-3.88-4.09-3.88Zm.06 6.02h-2.65v-4.3h2.65c1.4 0 2.18 1.16 2.18 2.15 0 .98-.8 2.15-2.18 2.15Zm11.48-1.8c-1.35 0-2.74.6-3.32 1.92l1.65.69c.36-.7 1-.93 1.7-.93.96 0 1.93.58 1.96 1.61v.14a4.15 4.15 0 0 0-1.94-.48c-1.78 0-3.59.98-3.59 2.8 0 1.69 1.46 2.76 3.09 2.76 1.25 0 1.94-.56 2.37-1.22h.06v.97h1.8v-4.79c0-2.23-1.65-3.46-3.78-3.46Zm-.23 6.85c-.6 0-1.46-.3-1.46-1.06 0-.97 1.06-1.34 1.97-1.34.82 0 1.2.18 1.7.42a2.24 2.24 0 0 1-2.2 1.98Zm10.55-6.58-2.14 5.43h-.06l-2.22-5.43h-2l3.32 7.58-1.9 4.21h1.95l5.1-11.79h-2.05Zm-16.75 8h1.86v-12.5H96.5v12.5Z" clip-rule="evenodd"/><path d="m16.56 17.35-3.5-3.53 3.5-3.55c2.48 1.4 4.4 2.45 4.76 2.65 1.18.64.58 1.47 0 1.79-.13.06-1.18.65-2.74 1.51a1934.78 1934.78 0 0 0-2.02 1.13ZM15.92 17.7l-3.34-3.38L1.4 25.69c.14-.04.28-.1.43-.19l.8-.44.03-.01 13.25-7.35ZM.5 25.62c-.33-.22-.5-.69-.5-1.28V3.4c0-.65.23-1.05.54-1.26l11.55 11.7-11.6 11.8ZM1.4 2l11.18 11.32 3.33-3.39L1.84 2.17c-.14-.08-.3-.14-.44-.17Z"/></svg>