<svg width="18" height="17" viewBox="0 0 18 17" fill="none" xmlns="http://www.w3.org/2000/svg">
<path fill-rule="evenodd" clip-rule="evenodd" d="M17.3465 10.1475V16.5534H13.6059V10.5683C13.6059 9.07209 13.0915 8.04341 11.7355 8.04341C10.7068 8.04341 10.099 8.74479 9.81843 9.3994C9.72492 9.63319 9.67816 9.9605 9.67816 10.2878V16.5534H5.9375C5.9375 16.5534 5.98426 6.40688 5.9375 5.37821H9.67816V6.96798C9.67816 6.96798 9.67816 7.01473 9.6314 7.01473H9.67816V6.96798C10.1925 6.21985 11.0342 5.09766 13.0448 5.09766C15.4762 5.09766 17.3465 6.73419 17.3465 10.1475V10.1475ZM2.10412 0.000976562C0.841646 0.000976562 0 0.842621 0 1.91806C0 2.99349 0.794889 3.83514 2.05736 3.83514H2.10412C3.41335 3.83514 4.20824 2.99349 4.20824 1.91806C4.16148 0.842621 3.36659 0.000976562 2.10412 0.000976562V0.000976562ZM0.1875 16.5534H3.88142V5.37817H0.1875V16.5534Z" fill="#FF553E"/>
</svg>
