<svg width="87" height="87" viewBox="0 0 87 87" fill="none" xmlns="http://www.w3.org/2000/svg">
<path d="M34.0942 30.7767L39.8993 36.5392C41.8891 38.5206 45.1074 38.5206 47.0973 36.5392L51.8642 31.8063L52.8678 30.7421L80.76 2.84665C81.8155 1.79105 81.0715 0 79.5835 0H69.7814C66.6322 0 63.6042 1.2546 61.3808 3.47828L43.4983 21.3715L37.5893 15.4619C35.4092 13.2815 32.4504 12.0528 29.3705 12.0528H15.4417L34.1288 30.7421L34.0942 30.7767Z" fill="#FF0C5D"/>
<path d="M17.3124 86.9999C20.401 86.9999 23.3597 85.7712 25.5399 83.5908L43.5003 65.6284L49.3314 71.4601C51.5635 73.6924 54.5915 74.947 57.7492 74.947H71.5569L52.8698 56.2578L52.9044 56.2232L47.108 50.4607C45.1095 48.4793 41.8911 48.4793 39.9013 50.4607L35.1344 55.1935L34.1308 56.2578L6.22124 84.1619C5.17442 85.2088 5.91844 86.9999 7.39784 86.9999" fill="#FFC005"/>
<path d="M21.3691 43.5043L15.5034 49.3707C13.2973 51.577 12.0515 54.5794 12.0515 57.7029V71.5641L30.7386 52.8749L30.7732 52.9095L36.5523 47.0864C38.5335 45.0877 38.5335 41.8604 36.535 39.8703L2.82037 6.20371C1.77355 5.16542 0 5.90087 0 7.37178V17.2269C0 20.3937 1.22851 23.3615 3.46923 25.6024L21.3691 43.5043Z" fill="#221ECA"/>
<path d="M83.5733 61.4408L65.7254 43.5044L71.6517 37.5515C73.7972 35.397 74.9998 32.4725 74.9998 29.4355V15.4272L56.3905 34.1251L56.3559 34.0905L50.6633 39.853C48.6994 41.8345 48.6907 45.0272 50.6373 47.0259L56.3646 52.9096L56.3992 52.8749L84.2395 80.8482C85.2604 81.8692 86.9993 81.1511 86.9993 79.7061V69.7299C86.9907 66.5977 85.7795 63.6559 83.5733 61.4408Z" fill="#221ECA"/>
</svg>
