<svg width="115" height="100" viewBox="0 0 115 100" fill="none" xmlns="http://www.w3.org/2000/svg">
<path d="M25.884 98.2523C20.2616 96.2049 15.5554 93.1647 11.6926 89.1009C7.84017 85.0578 4.92483 79.9289 2.96739 73.6626C0.999543 67.3859 0 59.9614 0 51.3994C0 42.7858 0.999543 35.3096 2.95698 28.9812C4.91442 22.6528 7.82976 17.4722 11.6822 13.3774C15.5554 9.26189 20.2616 6.18042 25.884 4.11232C30.9546 2.24069 36.7853 1.20664 43.3864 1.02051C42.3036 1.40311 41.2416 1.80639 40.2212 2.26137C35.3276 4.40185 31.0691 7.36958 27.5083 11.1128C23.4164 15.4041 20.3449 20.7605 18.2729 27.1406C16.2009 33.5104 15.1181 40.8935 14.9931 49.29C14.9827 49.8173 14.9827 50.3654 14.9827 50.9341C14.9827 51.4925 14.9931 52.0406 14.9931 52.5783V52.5886C15.0764 56.942 15.5033 60.8817 16.253 64.3975C16.5341 65.7728 16.8465 67.0963 17.2213 68.3372C18.3978 72.1942 20.0637 75.4204 22.2815 77.9745C24.7283 80.7975 27.9456 82.907 31.8396 84.2823C33.6409 84.913 35.5983 85.399 37.6807 85.7403C37.8369 85.7609 37.9931 85.792 38.1388 85.8126C38.2325 85.823 38.3262 85.8333 38.4095 85.854C40.5856 86.1642 42.8867 86.3193 45.3543 86.3297H50.2895C50.8934 86.3297 51.4973 86.3193 52.0804 86.2987C53.8816 86.2573 55.5892 86.1022 57.2134 85.8747H57.2239C60.691 85.3887 63.7834 84.4994 66.4905 83.1758C69.208 81.8522 71.5298 80.084 73.4144 77.9125C75.9028 75.0689 77.7041 71.398 78.891 66.9516C80.078 62.5051 80.6611 57.2729 80.6611 51.2547C80.6611 45.2468 80.0884 40.0145 78.9119 35.5578C77.7353 31.1114 75.9549 27.4198 73.5185 24.5348C71.6444 22.3426 69.3329 20.5641 66.605 19.2301C66.5009 19.1888 66.3967 19.1474 66.2926 19.0957H68.4895C70.9051 19.0957 73.1437 19.2612 75.2052 19.5507C75.2573 19.561 75.3198 19.561 75.3822 19.5714C75.5176 19.5921 75.6634 19.6231 75.7987 19.6438C76.1423 19.6955 76.4651 19.7575 76.7982 19.8195C76.9961 19.8609 77.1835 19.8919 77.3813 19.9333C77.4334 19.9436 77.4854 19.9643 77.5479 19.9747L77.6624 19.9953C77.7665 20.016 77.8603 20.0367 77.9436 20.0677C78.131 20.1091 78.3184 20.1504 78.4954 20.2021C78.9847 20.3262 79.4637 20.4607 79.9322 20.6054C80.0259 20.6364 80.1092 20.6571 80.2029 20.6881C80.5153 20.7916 80.8277 20.895 81.1296 20.9984C84.5655 22.2496 87.2726 24.0902 89.355 26.5305C91.3333 28.8571 92.9263 31.9696 94.0404 35.8577C94.2903 36.7263 94.5193 37.6569 94.7171 38.6082C95.2482 41.3071 95.5917 44.3162 95.7167 47.6562C95.7271 47.9974 95.7375 48.318 95.7479 48.6179V48.6282C95.7583 48.8247 95.7583 49.0625 95.7583 49.3313C95.7583 49.6105 95.7479 49.9104 95.7479 50.4068C95.7479 50.9651 95.7583 51.7614 95.7583 52.4542V52.5886C95.7583 52.8575 95.7583 53.1056 95.7479 53.3124V53.3228C95.7375 53.633 95.7271 53.9535 95.7167 54.3051C95.4772 62.0708 94.3631 68.8439 92.4161 74.6139C90.4691 80.3839 87.6891 85.1509 84.0866 88.9872C80.7964 92.4823 76.9024 95.2225 72.3628 97.2389" fill="#7188FF" fill-opacity="0.9"/>
<path d="M73.6538 99.9999C78.5474 97.8284 82.7955 94.8297 86.3668 91.0347C90.3129 86.8572 93.3115 81.6662 95.3627 75.5446C97.4346 69.4231 98.5695 62.3605 98.8298 54.3673V54.357C98.8402 54.0571 98.8507 53.7262 98.8611 53.3643C98.8611 53.3539 98.8611 53.3539 98.8611 53.3539C98.8715 53.0644 98.8715 52.8059 98.8715 52.5784V52.4129C98.8715 51.6994 98.8611 50.8929 98.8611 50.3655C98.8611 49.9002 98.8715 49.6417 98.8715 49.3108V49.2694C98.8715 49.0523 98.8715 48.7938 98.8611 48.5042V48.4939C98.8611 48.4939 98.8611 48.4939 98.8611 48.4835C98.8507 48.132 98.8402 47.8114 98.8298 47.5115V47.4909C98.632 42.3309 97.9552 37.8328 96.7891 33.9758C95.623 30.1188 93.9466 26.8926 91.7289 24.3385C89.2821 21.5155 86.0648 19.4164 82.1708 18.0308C78.2871 16.6555 73.7267 15.9937 68.4999 15.9833H63.5647C61.1595 15.9833 58.8898 16.1384 56.7761 16.4383H56.7657C53.2986 16.9243 50.2062 17.8136 47.4991 19.1372C44.792 20.4608 42.4598 22.229 40.5752 24.4005C38.0972 27.2441 36.2855 30.915 35.0985 35.3614C33.9116 39.8079 33.3285 45.0402 33.3285 51.0583C33.3285 57.0662 33.9012 62.2985 35.0777 66.7552C36.2543 71.2016 38.0347 74.8932 40.4815 77.7782C42.3556 79.9704 44.6671 81.749 47.395 83.0829C47.4991 83.1242 47.6032 83.1656 47.7074 83.2173H45.3751C40.4815 83.2173 36.3063 82.5659 32.8704 81.3147C29.4345 80.0635 26.7274 78.2228 24.645 75.7825C22.6667 73.4559 21.0633 70.3434 19.9492 66.4553C18.8351 62.5673 18.1896 57.8934 18.0855 52.4853C18.0751 51.9476 18.0751 51.4202 18.0751 50.8929C18.0751 50.3552 18.0855 49.8175 18.0855 49.2901C18.2 41.1314 19.262 34.0482 21.2195 28.0404C23.1769 22.0325 26.0298 17.1001 29.7572 13.1811C33.0474 9.72733 36.9415 7.01812 41.481 5.0224C46.0206 3.02668 51.2162 1.7548 57.0781 1.22744C59.1605 1.04131 61.3261 0.948242 63.5751 0.948242H68.5104C75.9757 0.948242 82.5144 1.98229 88.1264 4.02971C93.7488 6.07713 98.455 9.11724 102.328 13.1811C104.244 15.2078 105.941 17.4931 107.399 20.0678C108.857 22.6426 110.085 25.4863 111.064 28.6194C113.021 34.8961 114.021 42.3103 114.021 50.8825C114.021 59.4962 113.021 66.9724 111.064 73.2904C109.106 79.6188 106.191 84.7994 102.339 88.8942C98.4654 93.0098 93.7592 96.0912 88.1368 98.1593" fill="#6461DA"/>
</svg>
