<svg width="49" height="49" viewBox="0 0 49 49" fill="none" xmlns="http://www.w3.org/2000/svg">
<path d="M19.2561 34.4347L18.7526 33.1557C18.0529 31.3687 16.6358 29.9515 14.8488 29.2519L13.5698 28.7483L13.0395 28.5433L10.0447 27.3713V27.3668L9.40303 27.1173L6.34593 25.9185L3.83251 24.9336C3.42252 24.7554 3.21753 24.4523 3.21753 24.029C3.21753 24.0156 3.21753 24.0111 3.22198 24.0022C3.21753 23.9933 3.21753 23.9844 3.21753 23.9755C3.21753 23.5477 3.42252 23.2446 3.83251 23.0708L6.34593 22.0815L9.40303 20.8827L10.0447 20.6332L8.81032 17.8034L8.7613 17.6875L5.81116 18.8462L2.31733 20.2187C1.46616 20.5574 0.864544 21.0343 0.5214 21.6448C0.1738 22.2553 0 23.0441 0 24.0022C0 24.9604 0.1738 25.7447 0.5214 26.3597C0.864544 26.9702 1.46616 27.447 2.31733 27.7813L5.81562 29.1538L8.76576 30.3125L8.88163 30.3571L11.756 31.4846L12.7453 29.2162L11.756 31.4846L12.371 31.7252C14.158 32.4293 15.5707 33.842 16.2748 35.629L16.5155 36.244L19.4611 34.9606L19.2561 34.4347Z" fill="url(#paint0_linear_1_1033)"/>
<path d="M42.0061 36.6585L40.5088 33.2137L39.2431 30.3125L39.2209 30.3215L39.2431 30.3125L39.1941 30.1967L37.9597 27.3669L36.6584 27.8793L37.9642 27.3669L37.6968 26.7608C36.9303 25.0005 36.9303 22.9996 37.6968 21.2393L37.9642 20.6332L34.9694 19.4612L34.7422 19.9781L34.194 21.2348C33.4231 22.9996 33.4231 25.005 34.194 26.7652L34.7422 28.0219L34.9694 28.5433L36.2574 31.489L37.6032 30.9587L36.2574 31.489L36.5292 32.1174L37.8483 35.1299L38.9267 37.6032C39.0872 38.0132 39.0203 38.3742 38.7173 38.6772L38.6995 38.6951C38.695 38.6995 38.6906 38.7084 38.6816 38.7129C38.3786 39.0159 38.0221 39.0828 37.6076 38.9223L35.1343 37.8394L32.1218 36.5248L31.4934 36.2485L30.366 39.1229L30.317 39.2387L33.2225 40.5044L36.6673 42.0062C37.5051 42.3716 38.2672 42.4607 38.9446 42.2691C39.6219 42.0819 40.2993 41.6497 40.9767 40.9723C41.6541 40.2949 42.0908 39.6175 42.278 38.9402C42.4607 38.2628 42.3715 37.5007 42.0061 36.6585Z" fill="url(#paint1_linear_1_1033)"/>
<path d="M29.1538 5.81562L27.7812 2.31733C27.447 1.46616 26.9702 0.864544 26.3596 0.5214C25.7447 0.1738 24.9603 0 24.0022 0C23.0441 0 22.2597 0.1738 21.6448 0.5214C21.0342 0.864544 20.5574 1.46616 20.2232 2.31733L18.8461 5.81562L17.6919 8.7613L17.8078 8.81032L19.6839 9.6303L17.8078 8.81032L17.6919 8.7613L17.6474 8.87717L16.5199 11.7516L16.2792 12.3665C15.5751 14.1536 14.1624 15.5662 12.3754 16.2704L11.756 16.5155L13.0439 19.4611L13.5742 19.2517L14.8487 18.7526C16.6402 18.0529 18.0573 16.6358 18.757 14.8443L19.2606 13.5653L19.4656 13.0395L18.65 12.6829L19.4656 13.0395L20.6376 10.0447L20.8916 9.40748L22.0904 6.34593L23.0753 3.83251C23.2535 3.42698 23.5521 3.22198 23.9799 3.22198H24.0334C24.4612 3.22198 24.7598 3.42698 24.938 3.83251L25.9229 6.34593L27.1261 9.40748L27.3757 10.0447L30.2055 8.81478L30.3169 8.7613L29.1538 5.81562Z" fill="url(#paint2_linear_1_1033)"/>
<path d="M42.2735 9.06441C42.0863 8.38703 41.6496 7.70966 40.9722 7.03228C40.2948 6.35045 39.6175 5.91818 38.9401 5.73101C38.2627 5.54384 37.5007 5.63297 36.6629 5.99394L33.2181 7.49575L30.3125 8.76137V8.76583L30.2011 8.81485L27.3712 10.0448L26.7607 10.3122C25.0049 11.0787 23.004 11.0787 21.2437 10.3122L20.6332 10.0448L19.4611 13.0395L19.9825 13.2668L21.2392 13.8149C22.9995 14.5859 25.0049 14.5859 26.7652 13.8149L28.0263 13.2668L28.5433 13.0395L28.3383 12.5137L28.5433 13.0395L31.489 11.7516L30.3615 8.87724L30.3348 8.81485L30.3615 8.88169L31.489 11.7516L32.1173 11.4798L35.1299 10.1607L37.6032 9.08223C38.0176 8.9218 38.3741 8.98865 38.6772 9.29168C38.6816 9.29614 38.6905 9.3006 38.695 9.30951C38.6994 9.31396 38.7084 9.31842 38.7128 9.32733C39.0159 9.63037 39.0827 9.98688 38.9223 10.4013L37.8438 12.8746L36.5247 15.8872L36.2529 16.5155L39.1228 17.643L39.2431 17.6876L40.5043 14.7864L42.0106 11.3416C42.3715 10.4994 42.4607 9.74178 42.2735 9.06441Z" fill="url(#paint3_linear_1_1033)"/>
<path d="M47.4831 21.6447C47.1399 21.0342 46.5383 20.5573 45.6871 20.2186L42.1889 18.8461L39.2432 17.6874L39.2075 17.7587L39.2387 17.6874L39.1229 17.6428L36.2529 16.5154L35.6335 16.2703C33.8465 15.5662 32.4338 14.1535 31.7297 12.3664L31.489 11.7515L28.5433 13.0394L28.7483 13.5652L29.2519 14.8442C29.9516 16.6357 31.3687 18.0528 33.1602 18.7525L34.4347 19.2516L34.965 19.4611L37.9597 20.6331L38.6995 18.9397L37.9642 20.6331L38.6015 20.8826L41.6586 22.0814L44.1764 23.0707C44.582 23.2445 44.787 23.5476 44.787 23.9754C44.787 23.9843 44.787 23.9932 44.7825 24.0021C44.787 24.011 44.787 24.0155 44.787 24.0289C44.787 24.4522 44.582 24.7553 44.1764 24.9335L41.6586 25.9184L38.6015 27.1172L37.9642 27.3667L39.1986 30.1965L39.2476 30.3124L42.1933 29.1537L45.6916 27.7812C46.5428 27.4469 47.1444 26.9701 47.4875 26.3596C47.8351 25.7446 48.0089 24.9603 48.0089 24.0021C48.0045 23.044 47.8307 22.2552 47.4831 21.6447Z" fill="url(#paint4_linear_1_1033)"/>
<path d="M28.0219 34.7377L26.7652 34.1851C25.0005 33.4186 22.9995 33.4186 21.2393 34.1851L19.9826 34.7377L19.4612 34.9649L16.5155 36.2528L15.8871 36.5291L12.8746 37.8438L10.4013 38.9222C9.98683 39.0871 9.63032 39.0203 9.32728 38.7172C9.32283 38.7128 9.31391 38.7039 9.30946 38.6994C9.305 38.6949 9.29609 38.686 9.29163 38.6816C8.98859 38.3785 8.92175 38.0176 9.08218 37.6076L10.1651 35.1343L11.4797 32.1173L11.756 31.4934L8.88164 30.3615L8.76577 30.3169L7.4957 33.218L5.99834 36.6628C5.63292 37.5051 5.54379 38.2627 5.73096 38.9445C5.92258 39.6219 6.35486 40.2993 7.03223 40.9766C7.7096 41.654 8.38698 42.0863 9.06435 42.2734C9.74173 42.4651 10.5038 42.3759 11.3416 42.0105L14.7864 40.5087L17.692 39.2431L17.8078 39.1941L20.6377 37.9596L19.9291 36.1548L20.6377 37.9596L21.2437 37.6967C23.004 36.9302 25.0005 36.9302 26.7608 37.6967L27.3713 37.9596L28.5433 34.9694L28.0219 34.7377Z" fill="url(#paint5_linear_1_1033)"/>
<path d="M14.7864 7.49575L11.3416 5.99394C10.5038 5.63297 9.74172 5.54384 9.06434 5.73101C8.38697 5.91818 7.7096 6.35045 7.03222 7.03228C6.35485 7.70966 5.92257 8.38703 5.73095 9.06441C5.54378 9.74178 5.63291 10.4994 5.99388 11.3416L7.50014 14.7864L8.76576 17.6876L8.81479 17.8034L10.0492 20.6332L11.4975 20.0673L10.0537 20.6332L10.3166 21.2438C11.0831 23.0041 11.0831 25.0005 10.3166 26.7608L10.0537 27.3669L13.0439 28.5434L13.2712 28.022L13.8149 26.7653C14.5858 25.005 14.5858 23.0041 13.8193 21.2393L13.2667 19.9826L13.0395 19.4612L11.7516 16.5155L11.4797 15.8872L10.1651 12.8746L9.08217 10.4013C8.92174 9.98688 8.98859 9.63037 9.29162 9.32733C9.29608 9.31842 9.30499 9.31396 9.30945 9.30951C9.3139 9.3006 9.32282 9.29614 9.32727 9.29168C9.63031 8.98865 9.98682 8.9218 10.4013 9.08223L12.8746 10.1607L15.8871 11.4798L16.5155 11.7516L17.6474 8.88169L17.692 8.76137L14.7864 7.49575Z" fill="url(#paint6_linear_1_1033)"/>
<path d="M34.965 28.5432L34.4347 28.7482L33.1557 29.2518C31.3687 29.9514 29.9515 31.3686 29.2519 33.1556L28.7483 34.4346L28.5433 34.9649L27.3713 37.9596L27.1217 38.5969L25.9185 41.6584L24.9336 44.1718C24.7554 44.5774 24.4568 44.7868 24.029 44.7868C24.0201 44.7868 24.0111 44.7868 24.0022 44.7824C23.9933 44.7868 23.9844 44.7868 23.9755 44.7868C23.5477 44.7868 23.2491 44.5774 23.0708 44.1718L22.086 41.6584L20.8872 38.5969L20.6376 37.9596L17.8034 39.194L17.692 39.2431L18.8462 42.1932L20.2232 45.687C20.5574 46.5427 21.0343 47.1398 21.6448 47.4874C22.2598 47.835 23.0441 48.0044 24.0022 48.0044C24.9604 48.0044 25.7447 47.835 26.3597 47.4874C26.9702 47.1398 27.447 46.5427 27.7813 45.687L29.1538 42.1932L30.3125 39.2431L30.259 39.2163L30.3125 39.2386L30.3571 39.1227L31.4845 36.2483L29.8981 35.5576L31.4845 36.2483L31.7252 35.6334C32.4293 33.8463 33.842 32.4337 35.629 31.7295L36.2484 31.4889L34.965 28.5432Z" fill="url(#paint7_linear_1_1033)"/>
<defs>
<linearGradient id="paint0_linear_1_1033" x1="15.9407" y1="34.9514" x2="2.64937" y2="19.791" gradientUnits="userSpaceOnUse">
<stop stop-color="#221ECA"/>
<stop offset="1" stop-color="#6461DA"/>
</linearGradient>
<linearGradient id="paint1_linear_1_1033" x1="36.4232" y1="39.0894" x2="33.9311" y2="24.3443" gradientUnits="userSpaceOnUse">
<stop stop-color="#93D8DE"/>
<stop offset="1" stop-color="#65C8D0"/>
</linearGradient>
<linearGradient id="paint2_linear_1_1033" x1="14.7501" y1="17.9799" x2="27.7299" y2="2.40415" gradientUnits="userSpaceOnUse">
<stop stop-color="#221ECA"/>
<stop offset="1" stop-color="#6461DA"/>
</linearGradient>
<linearGradient id="paint3_linear_1_1033" x1="40.8049" y1="8.43284" x2="25.2291" y2="16.2207" gradientUnits="userSpaceOnUse">
<stop stop-color="#93D8DE"/>
<stop offset="1" stop-color="#65C8D0"/>
</linearGradient>
<linearGradient id="paint4_linear_1_1033" x1="28.5434" y1="21.0319" x2="48.0045" y2="21.0319" gradientUnits="userSpaceOnUse">
<stop stop-color="#221ECA"/>
<stop offset="1" stop-color="#6461DA"/>
</linearGradient>
<linearGradient id="paint5_linear_1_1033" x1="11.1033" y1="36.5136" x2="23.5639" y2="32.2562" gradientUnits="userSpaceOnUse">
<stop stop-color="#93D8DE"/>
<stop offset="1" stop-color="#65C8D0"/>
</linearGradient>
<linearGradient id="paint6_linear_1_1033" x1="11.652" y1="9.4174" x2="15.3901" y2="24.6816" gradientUnits="userSpaceOnUse">
<stop stop-color="#93D8DE"/>
<stop offset="1" stop-color="#65C8D0"/>
</linearGradient>
<linearGradient id="paint7_linear_1_1033" x1="32.0178" y1="28.2541" x2="20.4918" y2="46.0105" gradientUnits="userSpaceOnUse">
<stop stop-color="#221ECA"/>
<stop offset="1" stop-color="#6461DA"/>
</linearGradient>
</defs>
</svg>
